<svg xmlns="http://www.w3.org/2000/svg" xmlns:xlink="http://www.w3.org/1999/xlink" width="520" height="820" viewBox="0 0 520 820"><defs><style>.cls-1{fill:url(#linear-gradient);}.cls-13,.cls-2{fill:#b2a8b0;}.cls-3{fill:url(#linear-gradient-2);}.cls-4{fill:url(#linear-gradient-3);}.cls-26,.cls-5{fill:#e072b4;}.cls-6{fill:#333;}.cls-7{fill:url(#linear-gradient-4);}.cls-8{isolation:isolate;}.cls-9{clip-path:url(#clip-path);}.cls-10,.cls-13,.cls-15,.cls-18,.cls-26{opacity:0.5;}.cls-10,.cls-13,.cls-15,.cls-18,.cls-26,.cls-34{mix-blend-mode:multiply;}.cls-10{fill:url(#linear-gradient-6);}.cls-11{fill:#f5c783;}.cls-12{clip-path:url(#clip-path-2);}.cls-14{clip-path:url(#clip-path-3);}.cls-15{fill:url(#linear-gradient-8);}.cls-16{clip-path:url(#clip-path-4);}.cls-17{clip-path:url(#clip-path-5);}.cls-18{fill:url(#linear-gradient-10);}.cls-19{fill:#fff;}.cls-20{fill:#30023f;}.cls-21{fill:#32e7c1;}.cls-22{fill:#1a1a1a;}.cls-23{fill:none;stroke:#666;stroke-miterlimit:10;}.cls-24{fill:#4d2200;}.cls-25{clip-path:url(#clip-path-6);}.cls-27{clip-path:url(#clip-path-7);}.cls-28{clip-path:url(#clip-path-8);}.cls-29{fill:#1b1b1c;}.cls-30{fill:url(#linear-gradient-11);}.cls-31{opacity:0.29;}.cls-32{opacity:0.32;}.cls-33{clip-path:url(#clip-path-9);}.cls-34{fill:url(#linear-gradient-13);}.cls-35{fill:#7a5d5e;}.cls-36{fill:#604c4e;}</style><linearGradient id="linear-gradient" x1="4.41" y1="349.81" x2="210.92" y2="349.81" gradientUnits="userSpaceOnUse"><stop offset="0.11" stop-color="#433fa5"/><stop offset="0.76" stop-color="#32e7c1"/><stop offset="0.86" stop-color="#34e7c1"/><stop offset="0.89" stop-color="#3be7c3"/><stop offset="0.91" stop-color="#46e8c6"/><stop offset="0.93" stop-color="#57e9cb"/><stop offset="0.95" stop-color="#6dead0"/><stop offset="0.96" stop-color="#89ecd7"/><stop offset="0.98" stop-color="#a9eedf"/><stop offset="0.99" stop-color="#cdf0e9"/><stop offset="1" stop-color="#f2f2f2"/></linearGradient><linearGradient id="linear-gradient-2" x1="237.86" y1="383.47" x2="453.88" y2="383.47" xlink:href="#linear-gradient"/><linearGradient id="linear-gradient-3" x1="57.19" y1="508.22" x2="390.44" y2="508.22" xlink:href="#linear-gradient"/><linearGradient id="linear-gradient-4" x1="178.89" y1="125.24" x2="318.6" y2="125.24" xlink:href="#linear-gradient"/><clipPath id="clip-path"><path class="cls-1" d="M210.92,420.06S124.28,283.73,86.83,278.51c-29.68-4.14-90.25,34.67-81.57,58.17C27.93,398,207.19,428.38,210.92,420.06Z"/></clipPath><linearGradient id="linear-gradient-6" x1="-24.38" y1="374.57" x2="245.62" y2="374.57" xlink:href="#linear-gradient"/><clipPath id="clip-path-2"><path class="cls-2" d="M370.22,288.64c-2-3.25-11.38-6-10.45-9.23.71-2.46,2.35-1.32,3.89-3a3.14,3.14,0,0,0,.89-2.67c-.68-3.46-6.74-5.73-9.57-6.36s-4.25.43-3-4.74c.35-1.38,1.77-2.91,2.55-4a69.39,69.39,0,0,1,7.6-9.24,1.75,1.75,0,0,0,0-2.42c-7.1-8.15-18-4.57-26.85-1.72-17.35-23.63-48.61-39.4-84.28-39.4-37.41,0-70,17.34-86.71,42.9-1.8.23-3.6.46-5.39.72-4.48.64-9.37,2-11.55,6.4a8,8,0,0,0-.73,5.39c.68,3.06,5.63,7.83-.52,9.38-4.52,1.14-9-1.57-12.45,2.85a1.79,1.79,0,0,0-.26,2.07,63.24,63.24,0,0,0,17.29,18.72,33,33,0,0,1-16.34,3.92,1.72,1.72,0,0,0-1.65,2.15c1.37,4.65,4.91,7.18,9.1,9.26,5.5,2.72,11.19,5.13,16.83,7.61,14.1,31.08,50.77,86.53,93,86.53,46,0,84-59.54,95-95a128.4,128.4,0,0,0,23.29-18A1.72,1.72,0,0,0,370.22,288.64Z"/></clipPath><clipPath id="clip-path-3"><path class="cls-3" d="M237.86,435.21s129.67-123,181.22-110.42c23.68,5.76,43.94,72.26,30.5,92.58C420.28,461.68,237.86,435.21,237.86,435.21Z"/></clipPath><linearGradient id="linear-gradient-8" x1="310.84" y1="367.9" x2="514.41" y2="367.9" xlink:href="#linear-gradient"/><clipPath id="clip-path-4"><path class="cls-2" d="M145.5,199.92,153,268.08a2.7,2.7,0,0,0,4.28,1.88l55.26-40.62a2.69,2.69,0,0,0-.51-4.64l-62.81-27.55A2.69,2.69,0,0,0,145.5,199.92Z"/></clipPath><clipPath id="clip-path-5"><path class="cls-4" d="M57.19,693.75l333.25,12.51L299.8,393.45l48.56-83c.81-4.24-76.72,39.33-79.62,41l-17.11,52.36c3.58,16.19,4.54-39.51.05-52.36l-89.85-34.12c-2.86-1.56-10.73-5.1-9.1-2.28l47,79.05a11.3,11.3,0,0,0-1.2.12Z"/></clipPath><linearGradient id="linear-gradient-10" x1="17.07" y1="385.33" x2="458.36" y2="385.33" xlink:href="#linear-gradient"/><clipPath id="clip-path-6"><path class="cls-5" d="M157.18,204.66c-1.09-1.13,26.78,23.4,19.79,26.68-14.48,6.79-14.66,1.67-16.38,0C155.39,226.49,149.53,199.61,157.18,204.66Z"/></clipPath><clipPath id="clip-path-7"><path class="cls-5" d="M338.09,203.42s-26.8,22.83-19,23.94c13,1.87,12,1.63,13.61.49C333.31,227.41,343.12,200.8,338.09,203.42Z"/></clipPath><clipPath id="clip-path-8"><path class="cls-6" d="M464.89,612.84c0-120.92-98-83.74-218.94-83.74S27,491.92,27,612.84c0,74.85,37.57,128.55,94.87,158.62L108.7,802a4.14,4.14,0,0,0,2.16,5.43l12.39,5.35a17.68,17.68,0,0,0,23.17-9.2l7.9-18.29c27.87,9.42,58.91,14.24,91.63,14.24s63.75-4.82,91.63-14.24l7.89,18.29a17.68,17.68,0,0,0,23.17,9.2l12.4-5.35a4.14,4.14,0,0,0,2.15-5.43L370,771.46C427.32,741.39,464.89,687.69,464.89,612.84Z"/></clipPath><linearGradient id="linear-gradient-11" x1="55.44" y1="540.78" x2="434.18" y2="540.78" gradientUnits="userSpaceOnUse"><stop offset="0" stop-color="#433fa5"/><stop offset="1" stop-color="#6b4699"/></linearGradient><clipPath id="clip-path-9"><path class="cls-7" d="M178.89,19.3S198.23,152.37,184.58,207c-8.11,32.41,142.67,32.16,133.63,0C302.86,152.37,178.89,19.3,178.89,19.3Z"/></clipPath><linearGradient id="linear-gradient-13" x1="257.72" y1="181.53" x2="23.15" y2="46.02" xlink:href="#linear-gradient"/></defs><title>duvandtfurlin</title><g class="cls-8"><g id="potion"><g id="Startknap"><path class="cls-1" d="M210.92,420.06S124.28,283.73,86.83,278.51c-29.68-4.14-90.25,34.67-81.57,58.17C27.93,398,207.19,428.38,210.92,420.06Z"/><g class="cls-9"><path class="cls-10" d="M145.57,419.75c26.66-12.58-177.75-12.43-112.12-78.2,102-102.22,117.91-120.07,117.91-120.07L-24.38,313.17S200,645.19,245.62,483"/><polygon class="cls-11" points="53.28 388.81 42.97 391.81 46.86 381.8 40.82 372.91 51.54 373.52 58.12 365.03 60.86 375.42 70.97 379.05 61.94 384.86 61.6 395.6 53.28 388.81"/></g><path class="cls-2" d="M36.05,332.49C25.24,320.68,22.86,305.25,30.74,298s23-3.47,33.84,8.35"/><path class="cls-2" d="M370.22,288.64c-2-3.25-11.38-6-10.45-9.23.71-2.46,2.35-1.32,3.89-3a3.14,3.14,0,0,0,.89-2.67c-.68-3.46-6.74-5.73-9.57-6.36s-4.25.43-3-4.74c.35-1.38,1.77-2.91,2.55-4a69.39,69.39,0,0,1,7.6-9.24,1.75,1.75,0,0,0,0-2.42c-7.1-8.15-18-4.57-26.85-1.72-17.35-23.63-48.61-39.4-84.28-39.4-37.41,0-70,17.34-86.71,42.9-1.8.23-3.6.46-5.39.72-4.48.64-9.37,2-11.55,6.4a8,8,0,0,0-.73,5.39c.68,3.06,5.63,7.83-.52,9.38-4.52,1.14-9-1.57-12.45,2.85a1.79,1.79,0,0,0-.26,2.07,63.24,63.24,0,0,0,17.29,18.72,33,33,0,0,1-16.34,3.92,1.72,1.72,0,0,0-1.65,2.15c1.37,4.65,4.91,7.18,9.1,9.26,5.5,2.72,11.19,5.13,16.83,7.61,14.1,31.08,50.77,86.53,93,86.53,46,0,84-59.54,95-95a128.4,128.4,0,0,0,23.29-18A1.72,1.72,0,0,0,370.22,288.64Z"/><g class="cls-12"><path class="cls-13" d="M358.59,309.32,239.58,435,97,301.36l31.85-1.14S250.54,349.13,248.27,356s3.41,25,3.41,25l13.65-35.26S359.73,293.4,375.65,290s14.79-11.37,14.79-11.37"/></g><path class="cls-3" d="M237.86,435.21s129.67-123,181.22-110.42c23.68,5.76,43.94,72.26,30.5,92.58C420.28,461.68,237.86,435.21,237.86,435.21Z"/><g class="cls-14"><path class="cls-15" d="M449.58,417.37,310.84,431.55l30.69,43.83,172.88-39.81-108-175.15v45.49S434.8,416.24,449.58,417.37Z"/><polygon class="cls-11" points="378.86 337.19 382.18 347.4 372.05 343.82 363.36 350.13 363.63 339.39 354.95 333.07 365.25 330.02 368.57 319.81 374.66 328.66 385.4 328.66 378.86 337.19"/></g><path class="cls-2" d="M422.55,353.5c15.23-5,30.26-.76,33.56,9.39s-6.35,22.41-21.58,27.37"/><path class="cls-2" d="M346,200.94,334.87,267.3c-.39,2.33-3.16,3.36-3.62,4.26L279.36,228.7c-3.18-3.9-2.69-6.81-.48-7.64l63.06-23.51A3.07,3.07,0,0,1,346,200.94Z"/><path class="cls-2" d="M145.5,199.92,153,268.08a2.7,2.7,0,0,0,4.28,1.88l55.26-40.62a2.69,2.69,0,0,0-.51-4.64l-62.81-27.55A2.69,2.69,0,0,0,145.5,199.92Z"/><g class="cls-16"><path class="cls-13" d="M236.33,212.47C212.4,237.35,170.15,227.09,167,217c-3.73-11.73-75.07-59.14-77.34-68.24"/></g><path class="cls-4" d="M57.19,693.75l333.25,12.51L299.8,393.45l48.56-83c.81-4.24-76.72,39.33-79.62,41l-17.11,52.36c3.58,16.19,4.54-39.51.05-52.36l-89.85-34.12c-2.86-1.56-10.73-5.1-9.1-2.28l47,79.05a11.3,11.3,0,0,0-1.2.12Z"/><g class="cls-17"><path class="cls-18" d="M382.48,216.06l-85.3,182s21.14,69.41,6.82,85.3c-3.81,4.22-112.6,2.27-120.56,2.27-25,0-19-97.49,19.33-105.77,15.45-3.34-67.1-79.62-83-111.46S17.07,554.61,17.07,554.61l441.29-36.4Z"/></g><path class="cls-19" d="M188.21,238.46s46.6-9.06,45.86,34C233.84,286,184.31,283.08,188.21,238.46Z"/><path class="cls-20" d="M188.21,238.46a59.6,59.6,0,0,1,17.84-.35,36.2,36.2,0,0,1,16.6,6.34,26.66,26.66,0,0,1,6.21,6.46,31.56,31.56,0,0,1,3.77,8.14l.57,2.17c.21.73.28,1.47.43,2.21a41.75,41.75,0,0,1,.54,4.46c.13,1.49.09,3,.14,4.49a5.7,5.7,0,0,1-1.83,4.15,10.58,10.58,0,0,1-3.95,2.24,19.09,19.09,0,0,1-4.42.91,30.62,30.62,0,0,1-9-.56,34.82,34.82,0,0,1-15.92-7.94,32.75,32.75,0,0,1-9.52-15A46.2,46.2,0,0,1,188.21,238.46Zm0,0A46,46,0,0,0,190,256.13a32.46,32.46,0,0,0,9.5,14.8,34.35,34.35,0,0,0,15.78,7.78,30.17,30.17,0,0,0,8.84.51,18.68,18.68,0,0,0,4.31-.9,10.28,10.28,0,0,0,3.76-2.15,5.17,5.17,0,0,0,1.69-3.8c0-1.48,0-3-.12-4.45a38.58,38.58,0,0,0-.51-4.42c-.14-.72-.21-1.47-.41-2.18l-.56-2.15a30.74,30.74,0,0,0-3.68-8.05,26.54,26.54,0,0,0-6.1-6.41A36,36,0,0,0,206,238.35,59.67,59.67,0,0,0,188.21,238.46Z"/><ellipse class="cls-21" cx="212.85" cy="259.18" rx="11.82" ry="18.1"/><ellipse class="cls-22" cx="213.77" cy="263.88" rx="6.19" ry="6.7"/><ellipse class="cls-19" cx="214.13" cy="262" rx="2.25" ry="2.43"/><ellipse class="cls-19" cx="215.91" cy="267.9" rx="1.13" ry="1.22"/><path class="cls-19" d="M308,237.94s-45.07-5.88-42.11,36.8C266.83,288.07,314.08,281.92,308,237.94Z"/><path class="cls-20" d="M308,237.94a55.32,55.32,0,0,0-17.36,1.15,33.8,33.8,0,0,0-15.43,7.65,26.73,26.73,0,0,0-5.34,6.81,30.61,30.61,0,0,0-3,8.13l-.41,2.14c-.11.72-.17,1.44-.26,2.16-.21,1.44-.17,2.89-.24,4.34s.09,2.91.13,4.36a5.16,5.16,0,0,0,1.87,3.61,9.56,9.56,0,0,0,3.79,1.87,17,17,0,0,0,4.26.58,27.62,27.62,0,0,0,8.56-1.22,32.6,32.6,0,0,0,22.71-24.21A47.62,47.62,0,0,0,308,237.94Zm0,0a47.68,47.68,0,0,1-.44,17.42,32.92,32.92,0,0,1-22.83,24.56,28.41,28.41,0,0,1-8.69,1.28,18,18,0,0,1-4.38-.57,10,10,0,0,1-4-2,5.66,5.66,0,0,1-2-4c0-1.46-.14-2.93-.11-4.39s.05-2.93.27-4.39c.09-.72.15-1.45.27-2.18l.42-2.15a31.34,31.34,0,0,1,3-8.23A27,27,0,0,1,275,246.5a34,34,0,0,1,15.6-7.65A55.42,55.42,0,0,1,308,237.94Z"/><ellipse class="cls-21" cx="284.44" cy="260.36" rx="11.34" ry="18.03" transform="translate(-11.59 13.26) rotate(-2.62)"/><ellipse class="cls-22" cx="283.49" cy="262.38" rx="5.94" ry="6.81"/><ellipse class="cls-19" cx="283.05" cy="260.49" rx="2.16" ry="2.48"/><ellipse class="cls-19" cx="281.66" cy="266.6" rx="1.08" ry="1.24"/><path class="cls-5" d="M255.68,299.51l3.45-6a5,5,0,0,0-4.36-7.53h-6.89a5,5,0,0,0-4.35,7.53l3.45,6A5,5,0,0,0,255.68,299.51Z"/><path class="cls-23" d="M234.15,290.07a65.66,65.66,0,0,0-34.8-5.95"/><path class="cls-23" d="M233.54,293.24s-18.33-1.93-35.17,6.77"/><path class="cls-23" d="M234.66,296.23s-18,4.37-29.41,17.8"/><line class="cls-23" x1="251.68" y1="301.36" x2="251.68" y2="310.46"/><path class="cls-23" d="M268.26,291.21a65.66,65.66,0,0,1,34.8-5.95"/><path class="cls-23" d="M268.87,294.38s18.33-1.93,35.17,6.77"/><path class="cls-23" d="M267.75,297.37s18,4.37,29.42,17.8"/><path class="cls-24" d="M277.84,311.6l-12.62,15.83-1.87,2.33-.4.5a15.89,15.89,0,0,1-24.81,0l-.3-.37-1.77-2.22L223.25,311.6Z"/><path class="cls-5" d="M263.35,329.76l-.4.5a15.89,15.89,0,0,1-24.81,0l-.3-.37.11-.16a15.87,15.87,0,0,1,24.8-.67Z"/><path class="cls-5" d="M157.18,204.66c-1.09-1.13,26.78,23.4,19.79,26.68-14.48,6.79-14.66,1.67-16.38,0C155.39,226.49,149.53,199.61,157.18,204.66Z"/><g class="cls-25"><path class="cls-26" d="M157.66,230.27c24.17,4.5,10.74-16.48.11-27.32-3.28-3.35,28.14,25.56,28.14,25.56.57-.25-26.19,17.73-30.26,8.66-4.51-10-5.77-13.78-2.58-7.87"/></g><path class="cls-5" d="M338.09,203.42s-26.8,22.83-19,23.94c13,1.87,12,1.63,13.61.49C333.31,227.41,343.12,200.8,338.09,203.42Z"/><g class="cls-27"><path class="cls-26" d="M335.89,226.41c-19.32,4.17-8.81-13.59-.42-22.84,2.59-2.85-22.25,21.85-22.25,21.85-.46-.2,21.21,14.38,24.37,6.73,3.49-8.45,4.46-11.62,2-6.62"/></g><path class="cls-2" d="M185,233.07l-13.3-3.77a1.71,1.71,0,0,0-2.16,1.64c.35,3.46.69,6.93,1,10.39a20.72,20.72,0,0,1-5.33-6.94c-1-2-3.9-.25-2.95,1.72a23.66,23.66,0,0,0,9.48,10.25,1.73,1.73,0,0,0,2.57-1.48l-1.17-11.62c2.87,6,7.19,2.66,10.92,3.1C186.23,236.62,187.06,233.67,185,233.07Z"/><path class="cls-6" d="M464.89,612.84c0-120.92-98-83.74-218.94-83.74S27,491.92,27,612.84c0,74.85,37.57,128.55,94.87,158.62L108.7,802a4.14,4.14,0,0,0,2.16,5.43l12.39,5.35a17.68,17.68,0,0,0,23.17-9.2l7.9-18.29c27.87,9.42,58.91,14.24,91.63,14.24s63.75-4.82,91.63-14.24l7.89,18.29a17.68,17.68,0,0,0,23.17,9.2l12.4-5.35a4.14,4.14,0,0,0,2.15-5.43L370,771.46C427.32,741.39,464.89,687.69,464.89,612.84Z"/><g class="cls-28"><path class="cls-29" d="M20.48,539.07,3.42,621,34.13,829.1l137.62,54.59s520.88-177.6,240-121.7C130.32,818-14.77,563,93.28,582.29c0,0,37.53,5.69,152.4,4.55s213.14-19.89,204.38-35S20.48,539.07,20.48,539.07Z"/></g><path class="cls-22" d="M459.82,535.09c4.55,29-85.54,43.43-212.11,43.43s-211-22.39-215.53-43.43c-6.06-28,89-36.61,215.53-36.61S454.05,498.3,459.82,535.09Z"/><ellipse class="cls-30" cx="244.81" cy="540.78" rx="189.37" ry="23.67"/><g class="cls-31"><path class="cls-19" d="M442.44,581.15a76.63,76.63,0,0,1,3.87,11.63,104.11,104.11,0,0,1,2.33,12.07,97.35,97.35,0,0,1,.23,24.72,66.65,66.65,0,0,1-7.36,23.86,50.41,50.41,0,0,1-7.41,10.13,42.49,42.49,0,0,1-9.85,7.44,72.14,72.14,0,0,0,7.56-9.29,68,68,0,0,0,5.45-10.33,86.94,86.94,0,0,0,5.66-22.56,159.66,159.66,0,0,0,1-23.61C443.77,597.26,443.22,589.27,442.44,581.15Z"/></g><g class="cls-32"><path class="cls-19" d="M344.63,532.25a76.18,76.18,0,0,1,15.23-2.86,66.56,66.56,0,0,1,15.69.23,31.8,31.8,0,0,1,4,.9,14,14,0,0,1,4.16,1.94,7,7,0,0,1,1.95,2.08,5.26,5.26,0,0,1,.7,3.16,8,8,0,0,1-2.23,4.5A19.54,19.54,0,0,1,381,545a33.11,33.11,0,0,1-3.35,2.13,45.4,45.4,0,0,1-7.12,3.21c1.9-1.79,3.85-3.44,5.67-5.19a33.81,33.81,0,0,0,4.83-5.33,4.39,4.39,0,0,0,.93-2.34.85.85,0,0,0-.21-.48,2.56,2.56,0,0,0-.73-.6,10.79,10.79,0,0,0-2.84-1.1,29.71,29.71,0,0,0-3.43-.7c-4.77-.72-9.81-1-14.84-1.25S349.8,532.78,344.63,532.25Z"/></g><g class="cls-32"><path class="cls-19" d="M193.13,535.66c-5.17.54-10.26.77-15.3,1.06s-10.07.53-14.84,1.25a32.18,32.18,0,0,0-3.44.7,11.07,11.07,0,0,0-2.83,1.1,2.66,2.66,0,0,0-.74.6.92.92,0,0,0-.21.48,4.45,4.45,0,0,0,.93,2.34,33,33,0,0,0,4.83,5.33c1.82,1.75,3.78,3.4,5.67,5.19a46.29,46.29,0,0,1-7.12-3.2,34.38,34.38,0,0,1-3.35-2.14,19.48,19.48,0,0,1-3.13-2.76,8.05,8.05,0,0,1-2.23-4.5,5.26,5.26,0,0,1,.7-3.16,6.91,6.91,0,0,1,2-2.08,13.82,13.82,0,0,1,4.15-1.94,33.63,33.63,0,0,1,4-.9,67.1,67.1,0,0,1,15.69-.23A76.89,76.89,0,0,1,193.13,535.66Z"/></g><path class="cls-2" d="M338.43,227.14c-.42.52-1.25,2-1.89,2.24l-5.3-1.66c.07-.64.11-1.29.12-1.93a14.36,14.36,0,0,0-.84-3.82c-.53-1.25-2.34-1-2.94,0a18.83,18.83,0,0,1-7,6.68,59.83,59.83,0,0,0-4.07-16.05c-.81-2-4.11-1.14-3.29.9a57.68,57.68,0,0,1,4,16.55,18.75,18.75,0,0,1-3.39.75c-2.15.25-2.18,3.67,0,3.41a24.67,24.67,0,0,0,3.6-.72c.05,1.51.06,3,0,4.57-.1,2.19,3.32,2.19,3.41,0,.09-1.95.07-3.88,0-5.79a21.48,21.48,0,0,0,7.22-5.31c0,2.83-.51,5.67,3,7.07,4.06,1.61,7.4-1.55,9.71-4.48C342.18,227.84,339.78,225.41,338.43,227.14Z"/><path class="cls-7" d="M178.89,19.3S198.23,152.37,184.58,207c-8.11,32.41,142.67,32.16,133.63,0C302.86,152.37,178.89,19.3,178.89,19.3Z"/><g class="cls-33"><polygon class="cls-11" points="306.07 177.96 309.38 188.18 299.26 184.59 290.56 190.9 290.84 180.16 282.16 173.84 292.46 170.79 295.78 160.58 301.87 169.43 312.61 169.43 306.07 177.96"/><polygon class="cls-11" points="203.92 44.91 209.63 54.01 198.94 53.01 192.06 61.26 189.69 50.79 179.73 46.78 188.97 41.3 189.69 30.59 197.75 37.68 208.17 35.04 203.92 44.91"/><path class="cls-34" d="M200.5,224c0-66-20.47-257-43.22-228.61s-46.63,235.44-46.63,235.44"/></g><polygon class="cls-11" points="220.37 370.11 229.88 365.11 228.07 375.7 235.76 383.19 225.13 384.74 220.37 394.37 215.62 384.74 204.99 383.19 212.68 375.7 210.87 365.11 220.37 370.11"/><polygon class="cls-11" points="284.46 442.96 287.77 453.18 277.65 449.6 268.95 455.9 269.24 445.17 260.55 438.85 270.85 435.8 274.17 425.58 280.26 434.43 291 434.44 284.46 442.96"/><polygon class="cls-11" points="378.86 400.88 382.18 411.1 372.05 407.51 363.36 413.82 363.63 403.08 354.95 396.77 365.25 393.71 368.57 383.5 374.66 392.35 385.4 392.36 378.86 400.88"/><polygon class="cls-11" points="101.14 342.63 90.83 345.63 94.72 335.62 88.67 326.74 99.4 327.34 105.97 318.85 108.71 329.24 118.82 332.87 109.79 338.68 109.46 349.42 101.14 342.63"/><polygon class="cls-11" points="233.14 121.33 236.46 131.54 226.33 127.96 217.64 134.27 217.92 123.53 209.23 117.21 219.53 114.16 222.85 103.94 228.94 112.8 239.68 112.8 233.14 121.33"/><polygon class="cls-11" points="232.14 205.25 235.46 215.47 225.33 211.89 216.64 218.2 216.92 207.46 208.23 201.14 218.53 198.09 221.85 187.87 227.94 196.72 238.68 196.73 232.14 205.25"/><path class="cls-35" d="M515.59,774.9h0a21.73,21.73,0,0,1-23.89-19.2L407.86,5.8,434.3,43.52a30.28,30.28,0,0,1,5.3,14.15Z"/><path class="cls-36" d="M509.07,774.61a21.74,21.74,0,0,1-17.38-18.91L407.86,5.8l14.92,21.29Z"/></g></g></g></svg>
