<svg xmlns="http://www.w3.org/2000/svg" xmlns:xlink="http://www.w3.org/1999/xlink" width="500" height="820" viewBox="0 0 500 820"><defs><style>.cls-1{fill:#b2a8b0;}.cls-2{fill:#6b4699;}.cls-3{fill:#e072b4;}.cls-4{fill:#333;}.cls-5{clip-path:url(#clip-path);}.cls-6{fill:#9b989a;}.cls-7{clip-path:url(#clip-path-2);}.cls-8{fill:#4d3277;}.cls-9{clip-path:url(#clip-path-3);}.cls-10{fill:#f5c783;}.cls-11{clip-path:url(#clip-path-4);}.cls-12{fill:#fff;}.cls-13{fill:#30023f;}.cls-14{fill:#32e7c1;}.cls-15{fill:#1a1a1a;}.cls-16{fill:none;stroke:#666;stroke-miterlimit:10;}.cls-17{fill:#4d2200;}.cls-18{clip-path:url(#clip-path-5);}.cls-19{fill:#c14896;}.cls-20{clip-path:url(#clip-path-6);}.cls-21{clip-path:url(#clip-path-7);}.cls-22{fill:#1b1b1c;}.cls-23{fill:url(#linear-gradient);}.cls-24{opacity:0.29;}.cls-25{opacity:0.32;}.cls-26{clip-path:url(#clip-path-8);}.cls-27{clip-path:url(#clip-path-9);}.cls-28{fill:#7a5d5e;}.cls-29{fill:#604c4e;}</style><clipPath id="clip-path"><path class="cls-1" d="M348.25,288.25c-2-3.23-11.35-5.95-10.42-9.19.71-2.45,2.34-1.31,3.87-3a3.13,3.13,0,0,0,.9-2.66c-.69-3.44-6.72-5.7-9.55-6.33-2.67-.59-4.24.43-2.94-4.72.35-1.37,1.77-2.89,2.54-4a70.26,70.26,0,0,1,7.59-9.2,1.74,1.74,0,0,0,0-2.4c-7.09-8.11-17.91-4.55-26.79-1.71-17.3-23.52-48.46-39.22-84-39.22-37.31,0-69.76,17.26-86.47,42.7q-2.69.33-5.37.72c-4.46.63-9.35,2-11.52,6.36a8,8,0,0,0-.73,5.37c.69,3,5.61,7.79-.51,9.34-4.51,1.13-9-1.57-12.42,2.83a1.77,1.77,0,0,0-.26,2.06,63.17,63.17,0,0,0,17.24,18.64,33,33,0,0,1-16.29,3.89,1.72,1.72,0,0,0-1.64,2.15c1.36,4.63,4.89,7.15,9.07,9.21,5.49,2.71,11.16,5.11,16.78,7.58,14.06,30.94,50.63,86.13,92.75,86.13,45.85,0,83.75-59.27,94.7-94.56A128,128,0,0,0,348,290.31,1.71,1.71,0,0,0,348.25,288.25Z"/></clipPath><clipPath id="clip-path-2"><path class="cls-2" d="M35.9,693.75l333.24,12.51L278.51,393.45l48.55-83c.81-4.24-76.71,39.33-79.61,41l-17.11,52.36c3.57,16.19,4.53-39.51,0-52.36l-89.86-34.12c-2.85-1.56-10.72-5.1-9.09-2.28l47,79.05a10.48,10.48,0,0,0-1.19.12Z"/></clipPath><clipPath id="clip-path-3"><path class="cls-2" d="M216.57,435.21s129.66-123,181.21-110.42c23.68,5.76,44,72.26,30.51,92.58C399,461.68,216.57,435.21,216.57,435.21Z"/></clipPath><clipPath id="clip-path-4"><path class="cls-1" d="M124.2,199.92l7.55,68.16A2.7,2.7,0,0,0,136,270l55.26-40.62a2.69,2.69,0,0,0-.52-4.64L128,197.15A2.7,2.7,0,0,0,124.2,199.92Z"/></clipPath><clipPath id="clip-path-5"><path class="cls-3" d="M136,204.68c-1.13-1.14,28,23.68,20.75,26.9-15,6.68-15.18,1.55-17-.09C134.33,226.54,128,199.56,136,204.68Z"/></clipPath><clipPath id="clip-path-6"><path class="cls-3" d="M316.8,203.42s-26.8,22.83-19,23.94c13,1.87,12,1.63,13.62.49C312,227.41,321.82,200.8,316.8,203.42Z"/></clipPath><clipPath id="clip-path-7"><path class="cls-4" d="M444,608.86c0-120.91-98-83.73-218.94-83.73S6.07,488,6.07,608.86c0,74.85,37.57,128.56,94.87,158.63L87.77,798a4.14,4.14,0,0,0,2.15,5.43l12.4,5.35a17.68,17.68,0,0,0,23.17-9.2l7.89-18.29c27.88,9.42,58.92,14.24,91.63,14.24s63.76-4.82,91.63-14.24l7.9,18.29a17.68,17.68,0,0,0,23.17,9.2l12.39-5.35a4.14,4.14,0,0,0,2.16-5.43l-13.18-30.53C406.38,737.42,444,683.71,444,608.86Z"/></clipPath><linearGradient id="linear-gradient" x1="34.51" y1="536.8" x2="413.25" y2="536.8" gradientUnits="userSpaceOnUse"><stop offset="0.11" stop-color="#433fa5"/><stop offset="0.76" stop-color="#32e7c1"/><stop offset="0.86" stop-color="#34e7c1"/><stop offset="0.89" stop-color="#3be7c3"/><stop offset="0.91" stop-color="#46e8c6"/><stop offset="0.93" stop-color="#57e9cb"/><stop offset="0.95" stop-color="#6dead0"/><stop offset="0.96" stop-color="#89ecd7"/><stop offset="0.98" stop-color="#a9eedf"/><stop offset="0.99" stop-color="#cdf0e9"/><stop offset="1" stop-color="#f2f2f2"/></linearGradient><clipPath id="clip-path-8"><path class="cls-2" d="M185,370.89S51.34,461.63,47.26,499.21C44,529,84.66,588.37,107.88,579,168.53,554.46,193.42,374.36,185,370.89Z"/></clipPath><clipPath id="clip-path-9"><path class="cls-2" d="M157.59,19.3S176.93,152.37,163.28,207c-8.1,32.41,142.67,32.16,133.63,0C281.57,152.37,157.59,19.3,157.59,19.3Z"/></clipPath></defs><title>furlin</title><g id="furlin"><path class="cls-1" d="M348.25,288.25c-2-3.23-11.35-5.95-10.42-9.19.71-2.45,2.34-1.31,3.87-3a3.13,3.13,0,0,0,.9-2.66c-.69-3.44-6.72-5.7-9.55-6.33-2.67-.59-4.24.43-2.94-4.72.35-1.37,1.77-2.89,2.54-4a70.26,70.26,0,0,1,7.59-9.2,1.74,1.74,0,0,0,0-2.4c-7.09-8.11-17.91-4.55-26.79-1.71-17.3-23.52-48.46-39.22-84-39.22-37.31,0-69.76,17.26-86.47,42.7q-2.69.33-5.37.72c-4.46.63-9.35,2-11.52,6.36a8,8,0,0,0-.73,5.37c.69,3,5.61,7.79-.51,9.34-4.51,1.13-9-1.57-12.42,2.83a1.77,1.77,0,0,0-.26,2.06,63.17,63.17,0,0,0,17.24,18.64,33,33,0,0,1-16.29,3.89,1.72,1.72,0,0,0-1.64,2.15c1.36,4.63,4.89,7.15,9.07,9.21,5.49,2.71,11.16,5.11,16.78,7.58,14.06,30.94,50.63,86.13,92.75,86.13,45.85,0,83.75-59.27,94.7-94.56A128,128,0,0,0,348,290.31,1.71,1.71,0,0,0,348.25,288.25Z"/><g class="cls-5"><path class="cls-6" d="M336.66,308.84,218,433.92l-142.17-133,31.75-1.13s121.35,48.68,119.08,55.47,3.41,24.91,3.41,24.91l13.61-35.1s94.13-52.07,110-55.47,14.74-11.32,14.74-11.32"/></g><path class="cls-2" d="M35.9,693.75l333.24,12.51L278.51,393.45l48.55-83c.81-4.24-76.71,39.33-79.61,41l-17.11,52.36c3.57,16.19,4.53-39.51,0-52.36l-89.86-34.12c-2.85-1.56-10.72-5.1-9.09-2.28l47,79.05a10.48,10.48,0,0,0-1.19.12Z"/><g class="cls-7"><path class="cls-8" d="M361.18,216.06l-85.3,182s21.15,69.41,6.82,85.3c-3.8,4.22-112.59,2.27-120.56,2.27-25,0-19-97.49,19.34-105.77,15.44-3.34-67.1-79.62-83-111.46S-4.23,554.61-4.23,554.61l441.3-36.4Z"/></g><path class="cls-2" d="M216.57,435.21s129.66-123,181.21-110.42c23.68,5.76,44,72.26,30.51,92.58C399,461.68,216.57,435.21,216.57,435.21Z"/><g class="cls-9"><path class="cls-8" d="M422.46,414.11,281.32,436.46l33.93,41.94,174.59-50L369.19,260l2.62,45.41S407.27,413.84,422.46,414.11Z"/><polygon class="cls-10" points="357.56 337.19 360.88 347.4 350.75 343.82 342.06 350.13 342.34 339.39 333.65 333.07 343.95 330.02 347.27 319.81 353.36 328.66 364.1 328.66 357.56 337.19"/></g><path class="cls-1" d="M401.25,353.5c15.23-5,30.26-.76,33.57,9.39s-6.35,22.41-21.58,27.37"/><path class="cls-1" d="M324.75,200.94,313.58,267.3c-.4,2.33-3.16,3.36-3.63,4.26L258.07,228.7c-3.18-3.9-2.69-6.81-.48-7.64l63.06-23.51A3.08,3.08,0,0,1,324.75,200.94Z"/><path class="cls-1" d="M323.3,200.54l-5.92,35.15-3.83,22.8c-.38,2.23-.61,4.56-1.14,6.76-.58,2.39-1.82,3.28-3.52,5.25H311l-45.57-37.64c-1.92-1.59-4.72-3.2-6.25-5.17s-1.82-4.23-.21-5.55c1-.82,3.1-1.16,4.3-1.61l32.29-12,17.8-6.64c1.17-.44,9.68-5,9.88-.92.09,1.92,3.09,1.93,3,0-.25-5.14-4.26-5.48-8.08-4.06L304.45,202l-38.94,14.52c-2.7,1-5.73,1.77-8.3,3.1-4.62,2.38-2.79,7.54.32,10.59,7.64,7.48,16.79,13.87,25,20.67l26.33,21.75a1.52,1.52,0,0,0,2.12,0c1.77-2,3.47-2.83,4.13-5.59.42-1.79.61-3.68.92-5.49L320,238.45l6.24-37.11C326.51,199.45,323.62,198.64,323.3,200.54Z"/><path class="cls-1" d="M124.2,199.92l7.55,68.16A2.7,2.7,0,0,0,136,270l55.26-40.62a2.69,2.69,0,0,0-.52-4.64L128,197.15A2.7,2.7,0,0,0,124.2,199.92Z"/><g class="cls-11"><path class="cls-6" d="M215,212.47c-23.92,24.88-66.18,14.62-69.38,4.55-3.73-11.73-75.06-59.14-77.34-68.24"/></g><path class="cls-12" d="M166.91,238.46s46.61-9.06,45.87,34C212.55,286,163,283.08,166.91,238.46Z"/><path class="cls-13" d="M166.91,238.46a59.61,59.61,0,0,1,17.84-.35,36.11,36.11,0,0,1,16.6,6.34,26.47,26.47,0,0,1,6.21,6.46,31.06,31.06,0,0,1,3.77,8.14l.58,2.17c.2.73.28,1.47.42,2.21a39.34,39.34,0,0,1,.54,4.46c.14,1.49.09,3,.14,4.49a5.69,5.69,0,0,1-1.82,4.15,10.66,10.66,0,0,1-3.95,2.24,19.28,19.28,0,0,1-4.43.91,30.65,30.65,0,0,1-9-.56,34.83,34.83,0,0,1-15.91-7.94,32.66,32.66,0,0,1-9.52-15A46.4,46.4,0,0,1,166.91,238.46Zm0,0a46.21,46.21,0,0,0,1.74,17.67,32.4,32.4,0,0,0,9.51,14.8,34.35,34.35,0,0,0,15.78,7.78,30.11,30.11,0,0,0,8.83.51,18.57,18.57,0,0,0,4.31-.9,10.2,10.2,0,0,0,3.76-2.15,5.22,5.22,0,0,0,1.7-3.8c0-1.48,0-3-.12-4.45a41,41,0,0,0-.52-4.42c-.14-.72-.21-1.47-.41-2.18l-.55-2.15a31.09,31.09,0,0,0-3.69-8.05,26.5,26.5,0,0,0-6.09-6.41,36,36,0,0,0-16.45-6.36A59.67,59.67,0,0,0,166.91,238.46Z"/><ellipse class="cls-14" cx="191.55" cy="259.18" rx="11.82" ry="18.1"/><ellipse class="cls-15" cx="192.47" cy="263.88" rx="6.19" ry="6.7"/><ellipse class="cls-12" cx="192.83" cy="262" rx="2.25" ry="2.43"/><ellipse class="cls-12" cx="194.61" cy="267.9" rx="1.13" ry="1.22"/><path class="cls-12" d="M286.72,237.94s-45.08-5.88-42.11,36.8C245.53,288.07,292.78,281.92,286.72,237.94Z"/><path class="cls-13" d="M286.72,237.94a55.38,55.38,0,0,0-17.37,1.15,33.8,33.8,0,0,0-15.43,7.65,26.73,26.73,0,0,0-5.34,6.81,30.61,30.61,0,0,0-3,8.13l-.41,2.14c-.11.72-.17,1.44-.25,2.16a41.92,41.92,0,0,0-.24,4.34c0,1.45.09,2.91.12,4.36a5.23,5.23,0,0,0,1.87,3.61,9.56,9.56,0,0,0,3.79,1.87,17,17,0,0,0,4.27.58,27.66,27.66,0,0,0,8.56-1.22A32.61,32.61,0,0,0,286,255.31,47.84,47.84,0,0,0,286.72,237.94Zm0,0a47.9,47.9,0,0,1-.45,17.42,32.89,32.89,0,0,1-22.82,24.56,28.41,28.41,0,0,1-8.69,1.28,18,18,0,0,1-4.38-.57,10,10,0,0,1-4-2,5.58,5.58,0,0,1-2-4c0-1.46-.14-2.93-.11-4.39s.05-2.93.26-4.39c.09-.72.16-1.45.27-2.18l.43-2.15a30.65,30.65,0,0,1,3-8.23,26.83,26.83,0,0,1,5.44-6.87,34,34,0,0,1,15.6-7.65A55.4,55.4,0,0,1,286.72,237.94Z"/><ellipse class="cls-14" cx="263.15" cy="260.36" rx="11.34" ry="18.03" transform="translate(-11.62 12.29) rotate(-2.62)"/><ellipse class="cls-15" cx="262.2" cy="262.38" rx="5.94" ry="6.81"/><ellipse class="cls-12" cx="261.75" cy="260.49" rx="2.16" ry="2.48"/><ellipse class="cls-12" cx="260.36" cy="266.6" rx="1.08" ry="1.24"/><path class="cls-3" d="M234.38,299.51l3.45-6a5,5,0,0,0-4.35-7.53h-6.89a5,5,0,0,0-4.36,7.53l3.45,6A5,5,0,0,0,234.38,299.51Z"/><path class="cls-16" d="M212.86,290.07a65.66,65.66,0,0,0-34.8-5.95"/><path class="cls-16" d="M212.25,293.24s-18.34-1.93-35.17,6.77"/><path class="cls-16" d="M213.36,296.23s-18,4.37-29.41,17.8"/><line class="cls-16" x1="230.39" y1="301.36" x2="230.39" y2="310.46"/><path class="cls-16" d="M247,291.21a65.71,65.71,0,0,1,34.81-5.95"/><path class="cls-16" d="M247.57,294.38s18.34-1.93,35.17,6.77"/><path class="cls-16" d="M246.46,297.37s18,4.37,29.41,17.8"/><path class="cls-17" d="M256.54,311.6l-12.62,15.83-1.87,2.33-.39.5a15.9,15.9,0,0,1-24.82,0l-.3-.37-1.77-2.22L202,311.6Z"/><path class="cls-3" d="M242.05,329.76l-.39.5a15.9,15.9,0,0,1-24.82,0l-.3-.37.12-.16a15.86,15.86,0,0,1,24.79-.67Z"/><path class="cls-3" d="M136,204.68c-1.13-1.14,28,23.68,20.75,26.9-15,6.68-15.18,1.55-17-.09C134.33,226.54,128,199.56,136,204.68Z"/><g class="cls-18"><path class="cls-19" d="M136.37,230.27c24.16,4.5,10.74-16.48.11-27.32-3.28-3.35,28.13,25.56,28.13,25.56.57-.25-26.18,17.73-30.26,8.66-4.5-10-5.77-13.78-2.57-7.87"/></g><path class="cls-3" d="M316.8,203.42s-26.8,22.83-19,23.94c13,1.87,12,1.63,13.62.49C312,227.41,321.82,200.8,316.8,203.42Z"/><g class="cls-20"><path class="cls-19" d="M314.6,226.41c-19.33,4.17-8.82-13.59-.42-22.84,2.59-2.85-22.26,21.85-22.26,21.85-.46-.2,21.22,14.38,24.38,6.73,3.49-8.45,4.46-11.62,2-6.62"/></g><path class="cls-4" d="M444,608.86c0-120.91-98-83.73-218.94-83.73S6.07,488,6.07,608.86c0,74.85,37.57,128.56,94.87,158.63L87.77,798a4.14,4.14,0,0,0,2.15,5.43l12.4,5.35a17.68,17.68,0,0,0,23.17-9.2l7.89-18.29c27.88,9.42,58.92,14.24,91.63,14.24s63.76-4.82,91.63-14.24l7.9,18.29a17.68,17.68,0,0,0,23.17,9.2l12.39-5.35a4.14,4.14,0,0,0,2.16-5.43l-13.18-30.53C406.38,737.42,444,683.71,444,608.86Z"/><g class="cls-21"><path class="cls-22" d="M390.8,758C109.39,814-35.71,559,72.34,578.32c0,0,37.53,5.68,152.41,4.55s213.14-19.9,204.38-35S-.45,535.1-.45,535.1L-17.51,617,13.2,825.12l137.62,54.6S671.69,702.11,390.8,758Z"/></g><path class="cls-15" d="M438.89,531.12c4.55,29-85.54,43.43-212.12,43.43s-211-22.39-215.52-43.43c-6.07-28,89-36.61,215.52-36.61S433.12,494.32,438.89,531.12Z"/><ellipse class="cls-23" cx="223.88" cy="536.8" rx="189.37" ry="23.67"/><g class="cls-24"><path class="cls-12" d="M421.51,577.18a77.75,77.75,0,0,1,3.87,11.63,106.52,106.52,0,0,1,2.33,12.06,97.43,97.43,0,0,1,.23,24.73,66.47,66.47,0,0,1-7.37,23.86,51,51,0,0,1-7.4,10.13,42.62,42.62,0,0,1-9.86,7.44,72.23,72.23,0,0,0,7.57-9.29,67.65,67.65,0,0,0,5.45-10.34A87,87,0,0,0,422,624.85a161.09,161.09,0,0,0,1-23.61C422.84,593.28,422.29,585.29,421.51,577.18Z"/></g><g class="cls-25"><path class="cls-12" d="M323.7,528.27a76.87,76.87,0,0,1,15.23-2.85,66.47,66.47,0,0,1,15.68.23,31.56,31.56,0,0,1,4,.9,14.15,14.15,0,0,1,4.15,1.93,6.84,6.84,0,0,1,2,2.09,5.33,5.33,0,0,1,.7,3.16,8,8,0,0,1-2.24,4.5A19.48,19.48,0,0,1,360.1,541a33.25,33.25,0,0,1-3.36,2.13,45.81,45.81,0,0,1-7.11,3.21c1.89-1.8,3.85-3.44,5.67-5.19a33.91,33.91,0,0,0,4.83-5.34,4.55,4.55,0,0,0,.93-2.33,1,1,0,0,0-.21-.49,2.67,2.67,0,0,0-.74-.59,10.38,10.38,0,0,0-2.83-1.1,29.89,29.89,0,0,0-3.44-.7c-4.77-.72-9.8-1-14.84-1.26S328.87,528.81,323.7,528.27Z"/></g><g class="cls-25"><path class="cls-12" d="M172.2,531.69c-5.17.53-10.26.77-15.31,1.06s-10.07.53-14.84,1.25a30.33,30.33,0,0,0-3.44.7,11.22,11.22,0,0,0-2.83,1.1,2.58,2.58,0,0,0-.73.6.85.85,0,0,0-.21.48,4.39,4.39,0,0,0,.93,2.34,33.81,33.81,0,0,0,4.83,5.33c1.82,1.75,3.77,3.4,5.67,5.19a45.4,45.4,0,0,1-7.12-3.21,31.45,31.45,0,0,1-3.35-2.13,19.06,19.06,0,0,1-3.13-2.76,8,8,0,0,1-2.23-4.5,5.26,5.26,0,0,1,.7-3.16,7,7,0,0,1,2-2.08,14.05,14.05,0,0,1,4.15-1.94,32.33,32.33,0,0,1,4-.9,66.56,66.56,0,0,1,15.69-.23A76.31,76.31,0,0,1,172.2,531.69Z"/></g><path class="cls-2" d="M185,370.89S51.34,461.63,47.26,499.21C44,529,84.66,588.37,107.88,579,168.53,554.46,193.42,374.36,185,370.89Z"/><g class="cls-26"><path class="cls-8" d="M176.93,437.84c-12.94-26.33-5.22,177.75-70.16,113.68C5.85,451.94-11.69,436.44-11.69,436.44L82,609.88S389.14,378.5,233.35,336.56"/><polygon class="cls-2" points="158.53 529.4 161.84 539.62 151.72 536.03 143.02 542.34 143.3 531.61 134.62 525.29 144.91 522.24 148.24 512.02 154.32 520.87 165.07 520.88 158.53 529.4"/></g><path class="cls-1" d="M96.24,550.25c-9.33,13-23.92,18.55-32.61,12.33s-8.16-21.81,1.16-34.83"/><path class="cls-1" d="M163.66,233.07l-13.31-3.77a1.71,1.71,0,0,0-2.16,1.64c.35,3.46.7,6.93,1,10.39a20.85,20.85,0,0,1-5.33-6.94c-1-2-3.9-.25-2.94,1.72a23.54,23.54,0,0,0,9.48,10.25,1.72,1.72,0,0,0,2.56-1.48q-.58-5.81-1.16-11.62c2.86,6,7.18,2.66,10.91,3.1C164.93,236.62,165.77,233.67,163.66,233.07Z"/><path class="cls-1" d="M317.13,229.14c-.41.52-1.25,2-1.89,2.24l-5.3-1.66c.07-.64.11-1.29.12-1.93a14.34,14.34,0,0,0-.83-3.82c-.53-1.25-2.34-1-3,0a18.83,18.83,0,0,1-7,6.68,59.81,59.81,0,0,0-4.06-16.05c-.82-2-4.12-1.14-3.29.9a57.66,57.66,0,0,1,4,16.55,18.57,18.57,0,0,1-3.39.75c-2.15.25-2.17,3.67,0,3.41a24.54,24.54,0,0,0,3.61-.72c.05,1.51.06,3,0,4.57-.1,2.19,3.31,2.19,3.41,0,.09-1.95.07-3.88,0-5.79a21.54,21.54,0,0,0,7.21-5.31c0,2.83-.5,5.67,3,7.07,4.06,1.61,7.4-1.55,9.71-4.48C320.89,229.84,318.49,227.41,317.13,229.14Z"/><path class="cls-2" d="M157.59,19.3S176.93,152.37,163.28,207c-8.1,32.41,142.67,32.16,133.63,0C281.57,152.37,157.59,19.3,157.59,19.3Z"/><g class="cls-27"><polygon class="cls-10" points="284.77 177.96 288.09 188.18 277.96 184.59 269.27 190.9 269.55 180.16 260.86 173.84 271.16 170.79 274.49 160.58 280.57 169.43 291.31 169.43 284.77 177.96"/><polygon class="cls-10" points="182.62 44.91 188.34 54.01 177.65 53.01 170.77 61.26 168.4 50.79 158.44 46.78 167.67 41.3 168.39 30.59 176.45 37.68 186.88 35.04 182.62 44.91"/><path class="cls-8" d="M179.2,224c0-66-20.47-257-43.22-228.61S89.35,230.85,89.35,230.85"/></g><polygon class="cls-10" points="199.08 370.11 208.59 365.11 206.77 375.7 214.46 383.19 203.83 384.74 199.08 394.37 194.32 384.74 183.69 383.19 191.39 375.7 189.57 365.11 199.08 370.11"/><polygon class="cls-10" points="263.16 442.96 266.48 453.18 256.35 449.6 247.66 455.9 247.94 445.17 239.25 438.85 249.55 435.8 252.88 425.58 258.96 434.43 269.7 434.44 263.16 442.96"/><polygon class="cls-10" points="357.56 400.88 360.88 411.1 350.75 407.51 342.06 413.82 342.34 403.08 333.65 396.77 343.95 393.71 347.27 383.5 353.36 392.35 364.1 392.36 357.56 400.88"/><polygon class="cls-10" points="125.54 457.75 128.86 467.96 118.73 464.38 110.04 470.69 110.32 459.95 101.63 453.63 111.93 450.58 115.25 440.37 121.34 449.22 132.08 449.22 125.54 457.75"/><polygon class="cls-10" points="211.85 121.33 215.16 131.54 205.03 127.96 196.34 134.27 196.62 123.53 187.93 117.21 198.23 114.16 201.56 103.94 207.64 112.8 218.38 112.8 211.85 121.33"/><polygon class="cls-10" points="210.85 205.25 214.16 215.47 204.03 211.89 195.34 218.2 195.62 207.46 186.93 201.14 197.23 198.09 200.56 187.87 206.64 196.72 217.38 196.73 210.85 205.25"/></g><g id="furlin_copy" data-name="furlin copy"><path class="cls-28" d="M494.29,774.9h0a21.74,21.74,0,0,1-23.89-19.2L386.57,5.8,413,43.52a30.17,30.17,0,0,1,5.3,14.15Z"/><path class="cls-29" d="M487.78,774.61A21.74,21.74,0,0,1,470.4,755.7L386.57,5.8l14.92,21.29Z"/></g></svg>
